<mxfile host="Electron" agent="Mozilla/5.0 (Windows NT 10.0; Win64; x64) AppleWebKit/537.36 (KHTML, like Gecko) draw.io/25.0.2 Chrome/128.0.6613.186 Electron/32.2.5 Safari/537.36" version="25.0.2">
  <diagram name="Page-1" id="rwAsv5-tt7drVVvie3bY">
    <mxGraphModel dx="2776" dy="1464" grid="1" gridSize="10" guides="1" tooltips="1" connect="1" arrows="1" fold="1" page="1" pageScale="1" pageWidth="3300" pageHeight="2339" math="0" shadow="0">
      <root>
        <mxCell id="0" />
        <mxCell id="1" parent="0" />
        <mxCell id="Bh3IWW4fVJZL9cAef02n-2" value="Battery" style="rounded=1;whiteSpace=wrap;html=1;verticalAlign=bottom;" vertex="1" parent="1">
          <mxGeometry x="2580" y="1720" width="120" height="60" as="geometry" />
        </mxCell>
        <mxCell id="Bh3IWW4fVJZL9cAef02n-13" value="" style="group" vertex="1" connectable="0" parent="1">
          <mxGeometry x="1510" y="1700" width="510" height="90" as="geometry" />
        </mxCell>
        <mxCell id="Bh3IWW4fVJZL9cAef02n-1" value="Power Distribution Center" style="rounded=1;whiteSpace=wrap;html=1;horizontal=1;verticalAlign=bottom;" vertex="1" parent="Bh3IWW4fVJZL9cAef02n-13">
          <mxGeometry width="510" height="90" as="geometry" />
        </mxCell>
        <mxCell id="Bh3IWW4fVJZL9cAef02n-3" value="F1&lt;div&gt;30A&lt;/div&gt;" style="rounded=1;whiteSpace=wrap;html=1;" vertex="1" parent="Bh3IWW4fVJZL9cAef02n-13">
          <mxGeometry x="10" y="20" width="40" height="40" as="geometry" />
        </mxCell>
        <mxCell id="Bh3IWW4fVJZL9cAef02n-4" value="F2&lt;div&gt;50A&lt;/div&gt;" style="rounded=1;whiteSpace=wrap;html=1;" vertex="1" parent="Bh3IWW4fVJZL9cAef02n-13">
          <mxGeometry x="60" y="20" width="40" height="40" as="geometry" />
        </mxCell>
        <mxCell id="Bh3IWW4fVJZL9cAef02n-5" value="F3&lt;div&gt;50A&lt;/div&gt;" style="rounded=1;whiteSpace=wrap;html=1;" vertex="1" parent="Bh3IWW4fVJZL9cAef02n-13">
          <mxGeometry x="110" y="20" width="40" height="40" as="geometry" />
        </mxCell>
        <mxCell id="Bh3IWW4fVJZL9cAef02n-6" value="F4&lt;div&gt;40A&lt;/div&gt;" style="rounded=1;whiteSpace=wrap;html=1;" vertex="1" parent="Bh3IWW4fVJZL9cAef02n-13">
          <mxGeometry x="160" y="20" width="40" height="40" as="geometry" />
        </mxCell>
        <mxCell id="Bh3IWW4fVJZL9cAef02n-7" value="F5&lt;div&gt;20A&lt;/div&gt;" style="rounded=1;whiteSpace=wrap;html=1;" vertex="1" parent="Bh3IWW4fVJZL9cAef02n-13">
          <mxGeometry x="210" y="20" width="40" height="40" as="geometry" />
        </mxCell>
        <mxCell id="Bh3IWW4fVJZL9cAef02n-8" value="F6&lt;div&gt;50A&lt;/div&gt;" style="rounded=1;whiteSpace=wrap;html=1;" vertex="1" parent="Bh3IWW4fVJZL9cAef02n-13">
          <mxGeometry x="260" y="20" width="40" height="40" as="geometry" />
        </mxCell>
        <mxCell id="Bh3IWW4fVJZL9cAef02n-9" value="F7&lt;div&gt;30A&lt;/div&gt;" style="rounded=1;whiteSpace=wrap;html=1;" vertex="1" parent="Bh3IWW4fVJZL9cAef02n-13">
          <mxGeometry x="310" y="20" width="40" height="40" as="geometry" />
        </mxCell>
        <mxCell id="Bh3IWW4fVJZL9cAef02n-10" value="F8&lt;div&gt;20A&lt;/div&gt;" style="rounded=1;whiteSpace=wrap;html=1;" vertex="1" parent="Bh3IWW4fVJZL9cAef02n-13">
          <mxGeometry x="360" y="20" width="40" height="40" as="geometry" />
        </mxCell>
        <mxCell id="Bh3IWW4fVJZL9cAef02n-11" value="F9&lt;div&gt;40A&lt;/div&gt;" style="rounded=1;whiteSpace=wrap;html=1;" vertex="1" parent="Bh3IWW4fVJZL9cAef02n-13">
          <mxGeometry x="410" y="20" width="40" height="40" as="geometry" />
        </mxCell>
        <mxCell id="Bh3IWW4fVJZL9cAef02n-12" value="F10&lt;div&gt;30A&lt;/div&gt;" style="rounded=1;whiteSpace=wrap;html=1;" vertex="1" parent="Bh3IWW4fVJZL9cAef02n-13">
          <mxGeometry x="460" y="20" width="40" height="40" as="geometry" />
        </mxCell>
        <mxCell id="Bh3IWW4fVJZL9cAef02n-32" value="" style="group" vertex="1" connectable="0" parent="1">
          <mxGeometry x="1980" y="1250" width="160" height="130" as="geometry" />
        </mxCell>
        <mxCell id="Bh3IWW4fVJZL9cAef02n-31" value="" style="rounded=1;whiteSpace=wrap;html=1;strokeColor=default;align=center;verticalAlign=bottom;fontFamily=Helvetica;fontSize=12;fontColor=default;fillColor=default;" vertex="1" parent="Bh3IWW4fVJZL9cAef02n-32">
          <mxGeometry x="130" y="50" width="30" height="30" as="geometry" />
        </mxCell>
        <mxCell id="Bh3IWW4fVJZL9cAef02n-14" value="Alternator" style="rounded=1;whiteSpace=wrap;html=1;verticalAlign=bottom;" vertex="1" parent="Bh3IWW4fVJZL9cAef02n-32">
          <mxGeometry width="140" height="130" as="geometry" />
        </mxCell>
        <mxCell id="Bh3IWW4fVJZL9cAef02n-27" value="A" style="rounded=1;whiteSpace=wrap;html=1;" vertex="1" parent="Bh3IWW4fVJZL9cAef02n-32">
          <mxGeometry x="10" y="10" width="20" height="20" as="geometry" />
        </mxCell>
        <mxCell id="Bh3IWW4fVJZL9cAef02n-28" value="B" style="rounded=1;whiteSpace=wrap;html=1;" vertex="1" parent="Bh3IWW4fVJZL9cAef02n-32">
          <mxGeometry x="10" y="40" width="20" height="20" as="geometry" />
        </mxCell>
        <mxCell id="Bh3IWW4fVJZL9cAef02n-29" value="C" style="rounded=1;whiteSpace=wrap;html=1;" vertex="1" parent="Bh3IWW4fVJZL9cAef02n-32">
          <mxGeometry x="10" y="70" width="20" height="20" as="geometry" />
        </mxCell>
        <mxCell id="Bh3IWW4fVJZL9cAef02n-30" value="D" style="rounded=1;whiteSpace=wrap;html=1;" vertex="1" parent="Bh3IWW4fVJZL9cAef02n-32">
          <mxGeometry x="10" y="100" width="20" height="20" as="geometry" />
        </mxCell>
      </root>
    </mxGraphModel>
  </diagram>
</mxfile>
